<svg width="703" height="272" viewBox="0 0 703 272" fill="none" xmlns="http://www.w3.org/2000/svg">
<path fill-rule="evenodd" clip-rule="evenodd" d="M622.5 49.5V223.5C622.5 226.814 619.814 229.5 616.5 229.5C613.186 229.5 610.5 226.814 610.5 223.5V49.5C610.5 46.1863 613.186 43.5 616.5 43.5C619.814 43.5 622.5 46.1863 622.5 49.5ZM605 49.5C605 43.1487 610.149 38 616.5 38C622.851 38 628 43.1487 628 49.5V223.5C628 229.851 622.851 235 616.5 235C610.149 235 605 229.851 605 223.5V49.5ZM510.874 64.1965H487.593V184H510.874V64.1965ZM379.987 184V124.013C379.987 107.19 368.601 95.6343 351.268 95.6343C340.902 95.6343 332.065 99.8826 327.987 106H327.307V98.1833H304.536V184H327.817V132.51C327.817 121.804 333.765 115.007 343.281 115.007C351.778 115.007 356.876 120.615 356.876 130.811V184H379.987ZM269.795 184L269.115 178.562H268.266C264.017 183.66 256.88 186.549 248.043 186.549C229.351 186.549 216.266 173.974 216.266 155.961C216.266 137.948 229.521 125.883 248.553 125.883C256.37 125.883 263.168 127.922 267.926 131.32V126.732C267.926 118.236 262.488 114.157 250.423 114.157C242.776 114.157 234.279 115.687 228.331 117.896L231.05 98.5232C238.527 96.6539 246.174 95.9742 254.161 95.9742C280.671 95.9742 291.037 104.301 291.037 125.033V184H269.795ZM253.821 142.026C244.815 142.026 238.357 147.804 238.357 155.621C238.357 163.778 244.815 169.556 253.821 169.556C262.658 169.556 268.945 163.778 268.945 155.621C268.945 147.804 262.658 142.026 253.821 142.026ZM121.073 169.964H121.074H121.074H121.075H121.075C122 169.928 122.821 169.895 123.933 169.895C132.26 169.895 138.208 175.333 138.208 183.49C138.208 192.667 130.051 198.954 118.325 198.954C106.77 198.954 96.2339 193.007 90.1163 183.49L75.332 196.745C83.4889 210 99.2927 217.987 117.816 217.987C142.626 217.987 159.619 203.542 159.619 182.98C159.619 171.425 154.351 161.229 146.025 157.15V156.641C152.312 152.222 156.561 143.726 156.561 134.209C156.561 126.222 153.502 119.255 148.234 113.987H151.632L159.449 99.033V98.1833H117.985C95.3843 98.1833 79.2405 112.968 79.2405 134.039C79.2405 154.941 95.3843 170.065 116.116 170.065C118.509 170.065 119.878 170.011 121.072 169.964H121.072H121.073H121.073H121.073ZM100.142 134.039C100.142 124.523 107.62 116.876 117.816 116.876C128.182 116.876 135.829 124.693 135.829 134.039C135.829 143.896 128.182 151.373 117.816 151.373C107.45 151.373 100.142 143.896 100.142 134.039ZM216.498 98.1833C206.982 98.1833 198.995 101.582 195.086 107.53H194.237V98.1833H171.636V184H194.917V136.079C194.917 125.203 203.243 117.896 216.498 117.896V98.1833ZM433.341 186.549C405.981 186.549 387.119 167.686 387.119 141.007C387.119 114.497 405.981 95.6343 433.341 95.6343C460.7 95.6343 479.563 114.497 479.563 141.007C479.563 167.686 460.7 186.549 433.341 186.549ZM433.341 114.837C418.896 114.837 408.53 125.883 408.53 140.837C408.53 156.301 418.896 167.346 433.341 167.346C447.785 167.346 458.151 156.301 458.151 140.837C458.151 125.883 447.785 114.837 433.341 114.837ZM572.596 184L571.917 178.562H571.067C566.819 183.66 559.681 186.549 550.845 186.549C532.152 186.549 519.067 173.974 519.067 155.961C519.067 137.948 532.322 125.883 551.355 125.883C559.172 125.883 565.969 127.922 570.727 131.32V126.732C570.727 118.236 565.289 114.157 553.224 114.157C545.577 114.157 537.08 115.687 531.132 117.896L533.851 98.5232C541.328 96.6539 548.975 95.9742 556.962 95.9742C583.472 95.9742 593.838 104.301 593.838 125.033V184H572.596ZM556.623 142.026C547.616 142.026 541.159 147.804 541.159 155.621C541.159 163.778 547.616 169.556 556.623 169.556C565.459 169.556 571.747 163.778 571.747 155.621C571.747 147.804 565.459 142.026 556.623 142.026Z" fill="black"/>
</svg>
