<svg width="267" height="42" viewBox="0 0 267 42" fill="none" xmlns="http://www.w3.org/2000/svg">
<path d="M23.5244 17.792C24.8923 17.7922 26 18.8752 26 20.2119V25.959C25.9997 27.2955 24.8922 28.3777 23.5244 28.3779H20.4287C17.6941 28.378 15.4766 30.5456 15.4766 33.2178V36.2461C15.4766 37.5829 14.3681 38.666 13 38.666H2.47656C1.10845 38.666 0 37.5829 0 36.2461V30.5C0 29.1632 1.10845 28.0801 2.47656 28.0801H10.2148C12.9492 28.0798 15.1669 25.9131 15.167 23.2412V20.2119C15.167 18.8752 16.2747 17.7922 17.6426 17.792H23.5244ZM23.5244 2.66699C24.8924 2.66718 26 3.7499 26 5.08691V10.834C26 12.171 24.8924 13.2547 23.5244 13.2549H15.7861C13.0515 13.2549 10.8331 15.4221 10.833 18.0947V21.1201C10.833 22.4571 9.72541 23.5399 8.35742 23.54H2.47656C1.10848 23.54 5.12879e-05 22.4572 0 21.1201V15.3721C7.52434e-05 14.035 1.1085 12.9521 2.47656 12.9521H5.57129C8.30596 12.9521 10.5234 10.7841 10.5234 8.11133V5.08691C10.5234 3.74984 11.632 2.66707 13 2.66699H23.5244Z" fill="white"/>
<path d="M48.4934 5.66113C50.4105 5.66117 52.119 6.03693 53.6194 6.78711C55.1476 7.53731 56.3846 8.49515 57.3293 9.66211L54.0784 12.9131C53.2448 11.9684 52.3693 11.2737 51.4524 10.8291C50.5634 10.3568 49.5352 10.1211 48.3684 10.1211C46.9236 10.1211 45.784 10.4126 44.9504 10.9961C44.1447 11.5796 43.7415 12.3993 43.7415 13.4551C43.7415 14.3442 43.9913 15.0673 44.4915 15.623C44.9915 16.1509 45.6448 16.6091 46.4504 16.998C47.284 17.3593 48.1879 17.7066 49.1604 18.04C50.1606 18.3734 51.147 18.7483 52.1194 19.165C53.1197 19.5818 54.0226 20.1242 54.8284 20.791C55.6619 21.4301 56.3292 22.264 56.8293 23.292C57.3293 24.32 57.5793 25.6122 57.5793 27.168C57.5793 29.7797 56.648 31.8497 54.7864 33.3779C52.9526 34.906 50.466 35.6699 47.3264 35.6699C45.0202 35.6699 43.061 35.2535 41.4495 34.4199C39.8379 33.5863 38.3927 32.3635 37.1145 30.752L40.3655 27.501C41.1713 28.668 42.1301 29.5851 43.2415 30.252C44.3528 30.891 45.7699 31.2109 47.4924 31.2109C49.104 31.2109 50.3827 30.8768 51.3274 30.21C52.2996 29.5432 52.7862 28.6267 52.7864 27.46C52.7864 26.4874 52.5355 25.6953 52.0354 25.084C51.5353 24.4727 50.8689 23.972 50.0354 23.583C49.2297 23.1663 48.3266 22.8056 47.3264 22.5C46.3539 22.1666 45.3668 21.805 44.3665 21.416C43.3941 20.9993 42.4909 20.4852 41.6575 19.874C40.8517 19.2627 40.1986 18.4705 39.6985 17.498C39.1985 16.5256 38.9485 15.2892 38.9485 13.7891C38.9485 12.0663 39.3659 10.6069 40.1995 9.41211C41.0608 8.18974 42.2137 7.25912 43.6584 6.62012C45.1033 5.98104 46.7151 5.66113 48.4934 5.66113ZM85.2922 14.8311C86.8205 14.8311 88.1682 15.1642 89.3352 15.8311C90.1447 16.2641 90.8393 16.812 91.4192 17.4746V15.2471H96.0042V35.2529H91.4192V33.0557C90.8562 33.713 90.1763 34.2659 89.3772 34.7119C88.1824 35.351 86.8205 35.6699 85.2922 35.6699C83.4862 35.6699 81.8469 35.2118 80.3743 34.2949C78.9294 33.378 77.7766 32.141 76.9153 30.585C76.0817 29.0012 75.6643 27.237 75.6643 25.292C75.6643 23.3192 76.0817 21.555 76.9153 19.999C77.7766 18.4153 78.9295 17.165 80.3743 16.248C81.8469 15.3033 83.4862 14.8311 85.2922 14.8311ZM135.823 14.8311C137.379 14.8311 138.825 15.1358 140.158 15.7471C141.52 16.3306 142.673 17.1786 143.617 18.29L140.616 21.333C140.033 20.6384 139.324 20.1235 138.49 19.79C137.685 19.429 136.796 19.249 135.823 19.249C134.684 19.249 133.67 19.5121 132.781 20.04C131.919 20.5401 131.239 21.235 130.739 22.124C130.266 23.0131 130.03 24.0554 130.03 25.25C130.03 26.4169 130.266 27.4591 130.739 28.376C131.239 29.2651 131.919 29.974 132.781 30.502C133.67 31.0021 134.684 31.252 135.823 31.252C136.796 31.2519 137.685 31.0853 138.49 30.752C139.324 30.3907 140.033 29.8626 140.616 29.168L143.617 32.2109C142.673 33.3223 141.52 34.1837 140.158 34.7949C138.825 35.3784 137.379 35.6699 135.823 35.6699C133.851 35.6699 132.058 35.2119 130.447 34.2949C128.863 33.378 127.612 32.1276 126.696 30.5439C125.779 28.9601 125.321 27.195 125.321 25.25C125.321 23.2773 125.779 21.513 126.696 19.957C127.612 18.3733 128.863 17.123 130.447 16.2061C132.058 15.2891 133.851 14.8311 135.823 14.8311ZM191.199 14.8311C192.728 14.8311 194.075 15.1642 195.242 15.8311C196.052 16.2641 196.746 16.812 197.326 17.4746V15.2471H201.911V35.2529H197.326V33.0557C196.763 33.713 196.084 34.2659 195.284 34.7119C194.09 35.351 192.728 35.6699 191.199 35.6699C189.393 35.6699 187.754 35.2118 186.281 34.2949C184.837 33.378 183.684 32.141 182.823 30.585C181.989 29.0012 181.572 27.237 181.572 25.292C181.572 23.3192 181.989 21.555 182.823 19.999C183.684 18.4153 184.837 17.165 186.281 16.248C187.754 15.3033 189.393 14.8311 191.199 14.8311ZM248.101 14.8311C249.629 14.8311 250.977 15.1643 252.144 15.8311C252.953 16.2639 253.648 16.8113 254.228 17.4736V15.2471H258.813V35.2529H254.228V33.0557C253.665 33.7129 252.985 34.2659 252.186 34.7119C250.991 35.3509 249.629 35.6699 248.101 35.6699C246.295 35.6698 244.655 35.2118 243.183 34.2949C241.738 33.378 240.585 32.1409 239.724 30.585C238.89 29.0012 238.474 27.2369 238.474 25.292C238.474 23.3193 238.89 21.555 239.724 19.999C240.585 18.4154 241.738 17.165 243.183 16.248C244.655 15.3034 246.295 14.8311 248.101 14.8311ZM69.3606 15.2471H74.1536V19.415H69.3606V35.2529H64.7756V19.415H59.9827V15.2471H64.7756V6.91113H69.3606V15.2471ZM108.719 15.2471H113.512V19.415H108.719V35.2529H104.135V19.415H99.3411V15.2471H104.135V6.91113H108.719V15.2471ZM121.47 35.2529H116.885V15.2471H121.47V35.2529ZM170.346 14.8311C171.791 14.8311 173.097 15.1359 174.264 15.7471C175.431 16.3584 176.362 17.2206 177.057 18.332C177.751 19.4434 178.099 20.7771 178.099 22.333V35.2529H173.514V23.333C173.514 21.9995 173.097 20.9714 172.264 20.249C171.43 19.4988 170.402 19.124 169.179 19.124C168.373 19.1241 167.637 19.2906 166.97 19.624C166.303 19.9574 165.776 20.4433 165.387 21.082C164.998 21.6933 164.803 22.4439 164.803 23.333V35.2529H160.218V23.333C160.218 21.9994 159.802 20.9714 158.968 20.249C158.134 19.4989 157.106 19.1241 155.884 19.124C155.05 19.124 154.3 19.2906 153.633 19.624C152.994 19.9574 152.48 20.4432 152.091 21.082C151.702 21.6933 151.507 22.4439 151.507 23.333V35.2529H146.923V15.2471H151.507V17.2939C152.047 16.6874 152.686 16.1854 153.425 15.7891C154.564 15.1501 155.842 14.8311 157.259 14.8311C158.676 14.8311 159.955 15.1358 161.094 15.7471C162.176 16.3278 163.045 17.135 163.7 18.167C164.428 17.1556 165.336 16.3616 166.429 15.7891C167.624 15.1502 168.929 14.8311 170.346 14.8311ZM217.544 14.8311C219.045 14.8311 220.378 15.2201 221.545 15.998C222.712 16.7483 223.629 17.7345 224.296 18.957C224.963 20.1518 225.296 21.4021 225.296 22.708V35.2529H220.711V23.708C220.711 22.3744 220.281 21.2773 219.419 20.416C218.586 19.5546 217.502 19.124 216.168 19.124C215.279 19.1241 214.488 19.3182 213.793 19.707C213.099 20.096 212.556 20.6384 212.167 21.333C211.778 22.0275 211.584 22.8191 211.584 23.708V35.2529H206.999V15.2471H211.584V17.5088C212.132 16.852 212.784 16.3067 213.543 15.873C214.738 15.1784 216.072 14.8311 217.544 14.8311ZM234.581 35.2529H229.997V15.2471H234.581V35.2529ZM86.0422 19.165C84.9309 19.1651 83.9445 19.4292 83.0833 19.957C82.2497 20.4572 81.5834 21.1661 81.0833 22.083C80.6109 22.9999 80.3743 24.0554 80.3743 25.25C80.3743 26.4448 80.6109 27.501 81.0833 28.418C81.5833 29.3347 82.2498 30.0571 83.0833 30.585C83.9445 31.0851 84.9309 31.3359 86.0422 31.3359C87.7371 31.3359 89.0991 30.7661 90.1272 29.627C91.1831 28.4877 91.7112 27.0283 91.7112 25.25C91.7111 24.0554 91.4745 22.9998 91.0022 22.083C90.5299 21.1662 89.8634 20.4572 89.0022 19.957C88.1686 19.4291 87.1815 19.165 86.0422 19.165ZM191.949 19.165C190.838 19.1651 189.852 19.4292 188.99 19.957C188.157 20.4572 187.491 21.1661 186.99 22.083C186.518 22.9999 186.282 24.0554 186.281 25.25C186.281 26.4448 186.518 27.501 186.99 28.418C187.491 29.3347 188.157 30.0571 188.99 30.585C189.852 31.0851 190.838 31.3359 191.949 31.3359C193.644 31.3359 195.006 30.7661 196.034 29.627C197.09 28.4877 197.618 27.0283 197.618 25.25C197.618 24.0554 197.382 22.9998 196.909 22.083C196.437 21.1662 195.771 20.4572 194.909 19.957C194.076 19.4291 193.089 19.165 191.949 19.165ZM248.852 19.165C247.74 19.165 246.753 19.4291 245.892 19.957C245.058 20.4572 244.392 21.1662 243.892 22.083C243.42 22.9998 243.183 24.0554 243.183 25.25C243.183 26.4448 243.419 27.501 243.892 28.418C244.392 29.3347 245.059 30.0571 245.892 30.585C246.753 31.0851 247.74 31.3359 248.852 31.3359C250.546 31.3359 251.908 30.7659 252.936 29.627C253.992 28.4877 254.52 27.0283 254.52 25.25C254.52 24.0555 254.284 22.9998 253.812 22.083C253.339 21.1661 252.672 20.4572 251.811 19.957C250.977 19.4291 249.991 19.1651 248.852 19.165ZM119.178 6.07812C119.984 6.07817 120.637 6.34222 121.137 6.87012C121.637 7.39801 121.887 8.05121 121.887 8.8291C121.887 9.60698 121.637 10.2602 121.137 10.7881C120.637 11.3159 119.984 11.58 119.178 11.5801C118.4 11.5801 117.747 11.3159 117.219 10.7881C116.719 10.2602 116.469 9.60698 116.469 8.8291C116.469 8.05112 116.719 7.39804 117.219 6.87012C117.747 6.34218 118.4 6.07812 119.178 6.07812ZM232.289 6.07812C233.095 6.07813 233.748 6.34218 234.248 6.87012C234.748 7.39803 234.998 8.05116 234.998 8.8291C234.998 9.60698 234.748 10.2602 234.248 10.7881C233.748 11.3159 233.095 11.5801 232.289 11.5801C231.511 11.5801 230.858 11.3159 230.33 10.7881C229.83 10.2602 229.58 9.60698 229.58 8.8291C229.58 8.05117 229.83 7.39802 230.33 6.87012C230.858 6.34218 231.511 6.07812 232.289 6.07812Z" fill="white" fill-opacity="0.8"/>
<path d="M64.7546 23.5829V19.415H69.4435L64.7546 23.5829Z" fill="#1A1A1C"/>
<path d="M104.002 23.5829V19.415H108.691L104.002 23.5829Z" fill="#1A1A1C"/>
</svg>
