<svg width="767" height="119" viewBox="0 0 767 119" fill="none" xmlns="http://www.w3.org/2000/svg">
<path d="M76 50C80.4199 50 83.9999 53.5791 84 57.998V76.9941C84 81.4132 80.42 84.9922 76 84.9922H66C57.165 84.9922 50 92.1562 50 100.989V111.002C49.9999 115.421 46.4199 119 42 119H8C3.58007 119 0.000115266 115.421 0 111.002V92.0059C5.06432e-06 87.5868 3.58 84.0078 8 84.0078H33C41.835 84.0078 49 76.8438 49 68.0107V57.998C49.0001 53.5791 52.5801 50 57 50H76ZM76 0C80.42 0 84 3.58 84 8V27C84 31.42 80.42 35 76 35H51C42.165 35 35 42.165 35 51V61C35 65.42 31.42 69 27 69H8C3.58 69 0 65.42 0 61V42C0 37.58 3.58 34 8 34H18C26.835 34 34 26.835 34 18V8C34 3.58 37.58 0 42 0H76Z" fill="black"/>
<path d="M148.76 16.2998C154.28 16.2998 159.2 17.3801 163.52 19.54C167.92 21.7 171.48 24.4603 174.2 27.8203L164.84 37.1797C162.44 34.4599 159.92 32.4597 157.28 31.1797C154.72 29.8197 151.759 29.1396 148.399 29.1396C144.24 29.1397 140.959 29.9802 138.56 31.6602C136.24 33.3401 135.08 35.7004 135.08 38.7402C135.08 41.3001 135.8 43.3805 137.24 44.9805C138.68 46.5003 140.56 47.8205 142.88 48.9404C145.28 49.9804 147.88 50.9805 150.68 51.9404C153.56 52.9004 156.4 53.9797 159.2 55.1797C162.08 56.3797 164.68 57.9404 167 59.8604C169.4 61.7002 171.32 64.0998 172.76 67.0596C174.2 70.0195 174.92 73.7398 174.92 78.2197C174.92 85.7396 172.24 91.6996 166.88 96.0996C161.6 100.5 154.439 102.7 145.399 102.7C138.76 102.7 133.119 101.5 128.479 99.0996C123.84 96.6996 119.68 93.1798 116 88.54L125.36 79.1797C127.68 82.5396 130.44 85.1796 133.64 87.0996C136.84 88.9396 140.92 89.8604 145.88 89.8604C150.52 89.8604 154.2 88.9004 156.92 86.9805C159.72 85.0605 161.12 82.4196 161.12 79.0596C161.12 76.2598 160.4 73.9796 158.96 72.2197C157.52 70.4599 155.6 69.0203 153.2 67.9004C150.88 66.7004 148.279 65.6603 145.399 64.7803C142.6 63.8203 139.76 62.7801 136.88 61.6602C134.08 60.4602 131.48 58.9797 129.08 57.2197C126.76 55.4597 124.879 53.1799 123.439 50.3799C122 47.58 121.28 44.02 121.28 39.7002C121.28 34.7402 122.48 30.5396 124.88 27.0996C127.36 23.5797 130.68 20.8995 134.84 19.0596C139 17.2196 143.64 16.2998 148.76 16.2998ZM254.711 42.7002C259.111 42.7003 262.991 43.6601 266.351 45.5801C268.681 46.8268 270.681 48.4047 272.351 50.3125V43.9004H285.551V101.5H272.351V95.1738C270.73 97.0662 268.771 98.6564 266.471 99.9404C263.031 101.78 259.111 102.7 254.711 102.7C249.511 102.7 244.791 101.38 240.551 98.7402C236.391 96.1002 233.071 92.5396 230.591 88.0596C228.191 83.4997 226.99 78.4201 226.99 72.8203C226.99 67.1403 228.191 62.0601 230.591 57.5801C233.071 53.0201 236.391 49.4203 240.551 46.7803C244.791 44.0603 249.511 42.7002 254.711 42.7002ZM400.196 42.7002C404.676 42.7002 408.837 43.5798 412.677 45.3398C416.597 47.0198 419.917 49.4602 422.637 52.6602L413.996 61.4199C412.316 59.42 410.276 57.9404 407.876 56.9805C405.556 55.9405 402.996 55.4199 400.196 55.4199C396.916 55.4199 393.996 56.1802 391.437 57.7002C388.957 59.1402 386.997 61.1402 385.557 63.7002C384.197 66.2602 383.517 69.2602 383.517 72.7002C383.517 76.0601 384.197 79.0602 385.557 81.7002C386.997 84.2601 388.957 86.3004 391.437 87.8203C393.996 89.2602 396.916 89.9805 400.196 89.9805C402.996 89.9805 405.556 89.4999 407.876 88.54C410.276 87.5001 412.316 85.9803 413.996 83.9805L422.637 92.7402C419.917 95.9401 416.597 98.4197 412.677 100.18C408.837 101.86 404.676 102.7 400.196 102.7C394.516 102.7 389.357 101.38 384.717 98.7402C380.157 96.1003 376.556 92.5004 373.916 87.9404C371.276 83.3805 369.956 78.3001 369.956 72.7002C369.956 67.0203 371.276 61.9399 373.916 57.46C376.556 52.9 380.157 49.3002 384.717 46.6602C389.357 44.0203 394.516 42.7002 400.196 42.7002ZM559.633 42.7002C564.033 42.7003 567.913 43.6601 571.272 45.5801C573.603 46.8268 575.603 48.4047 577.272 50.3125V43.9004H590.473V101.5H577.272V95.1738C575.652 97.0662 573.693 98.6564 571.393 99.9404C567.953 101.78 564.033 102.7 559.633 102.7C554.433 102.7 549.713 101.38 545.473 98.7402C541.313 96.1002 537.993 92.5396 535.513 88.0596C533.113 83.4997 531.912 78.4201 531.912 72.8203C531.912 67.1403 533.113 62.0601 535.513 57.5801C537.993 53.0201 541.313 49.4203 545.473 46.7803C549.713 44.0603 554.433 42.7002 559.633 42.7002ZM723.461 42.7002C727.861 42.7003 731.741 43.6601 735.101 45.5801C737.431 46.8268 739.431 48.4047 741.101 50.3125V43.9004H754.301V101.5H741.101V95.1738C739.48 97.0661 737.521 98.6564 735.221 99.9404C731.781 101.78 727.861 102.7 723.461 102.7C718.261 102.7 713.541 101.38 709.301 98.7402C705.141 96.1002 701.821 92.5396 699.341 88.0596C696.941 83.4997 695.74 78.4201 695.74 72.8203C695.74 67.1403 696.941 62.0601 699.341 57.5801C701.821 53.0201 705.141 49.4203 709.301 46.7803C713.541 44.0603 718.261 42.7002 723.461 42.7002ZM208.84 43.9004H222.64V55.9004H208.84V101.5H195.64V55.9004H181.84V43.9004H195.64V19.9004H208.84V43.9004ZM322.16 43.9004H335.96V55.9004H322.16V101.5H308.96V55.9004H295.16V43.9004H308.96V19.9004H322.16V43.9004ZM358.871 101.5H345.672V43.9004H358.871V101.5ZM499.593 42.7002C503.753 42.7002 507.513 43.5799 510.873 45.3398C514.233 47.0998 516.913 49.5803 518.913 52.7803C520.913 55.9802 521.913 59.82 521.913 64.2998V101.5H508.713V67.1797C508.713 63.3399 507.513 60.3797 505.113 58.2998C502.713 56.1399 499.753 55.0597 496.233 55.0596C493.913 55.0596 491.793 55.54 489.873 56.5C487.953 57.46 486.433 58.8602 485.313 60.7002C484.194 62.4601 483.633 64.6198 483.633 67.1797V101.5H470.433V67.1797C470.433 63.3398 469.233 60.3797 466.833 58.2998C464.433 56.1399 461.473 55.0596 457.953 55.0596C455.553 55.0596 453.393 55.54 451.473 56.5C449.633 57.46 448.153 58.8603 447.033 60.7002C445.913 62.4601 445.353 64.6199 445.353 67.1797V101.5H432.153V43.9004H445.353V49.793C446.907 48.0465 448.746 46.6011 450.873 45.46C454.153 43.62 457.833 42.7002 461.913 42.7002C465.993 42.7002 469.673 43.5799 472.953 45.3398C476.066 47.0102 478.564 49.3305 480.452 52.2979C482.546 49.3872 485.167 47.108 488.313 45.46C491.753 43.6201 495.513 42.7002 499.593 42.7002ZM635.481 42.7002C639.801 42.7002 643.642 43.8196 647.002 46.0596C650.362 48.2196 653.002 51.0601 654.922 54.5801C656.842 58.02 657.802 61.62 657.802 65.3799V101.5H644.602V68.2598C644.602 64.4199 643.362 61.2602 640.882 58.7803C638.482 56.3003 635.362 55.0596 631.521 55.0596C628.962 55.0596 626.682 55.6203 624.682 56.7402C622.682 57.8602 621.122 59.4201 620.002 61.4199C618.882 63.4199 618.322 65.6999 618.322 68.2598V101.5H605.122V43.9004H618.322V50.4111C619.898 48.5199 621.777 46.9487 623.962 45.7002C627.402 43.7003 631.242 42.7003 635.481 42.7002ZM684.535 101.5H671.336V43.9004H684.535V101.5ZM256.87 55.1797C253.67 55.1797 250.83 55.9401 248.351 57.46C245.951 58.8999 244.031 60.9401 242.591 63.5801C241.231 66.2201 240.551 69.2602 240.551 72.7002C240.551 76.1401 241.231 79.1804 242.591 81.8203C244.031 84.4601 245.951 86.5396 248.351 88.0596C250.83 89.4995 253.67 90.2197 256.87 90.2197C261.75 90.2197 265.671 88.5798 268.631 85.2998C271.671 82.0199 273.19 77.82 273.19 72.7002C273.19 69.2602 272.51 66.2201 271.15 63.5801C269.79 60.9401 267.871 58.9 265.391 57.46C262.991 55.94 260.15 55.1797 256.87 55.1797ZM561.792 55.1797C558.592 55.1797 555.752 55.9401 553.272 57.46C550.872 58.8999 548.953 60.9401 547.513 63.5801C546.153 66.2201 545.473 69.2602 545.473 72.7002C545.473 76.1401 546.153 79.1804 547.513 81.8203C548.953 84.4601 550.873 86.5396 553.272 88.0596C555.752 89.4995 558.592 90.2197 561.792 90.2197C566.672 90.2197 570.593 88.5798 573.553 85.2998C576.592 82.0199 578.112 77.82 578.112 72.7002C578.112 69.2602 577.432 66.2201 576.072 63.5801C574.712 60.9401 572.792 58.9 570.312 57.46C567.913 55.94 565.072 55.1797 561.792 55.1797ZM725.62 55.1797C722.42 55.1797 719.581 55.94 717.101 57.46C714.701 58.8999 712.781 60.9401 711.341 63.5801C709.981 66.2201 709.301 69.2602 709.301 72.7002C709.301 76.1401 709.981 79.1804 711.341 81.8203C712.781 84.4601 714.701 86.5396 717.101 88.0596C719.581 89.4995 722.42 90.2197 725.62 90.2197C730.5 90.2197 734.421 88.5798 737.381 85.2998C740.421 82.0199 741.94 77.82 741.94 72.7002C741.94 69.2602 741.26 66.2201 739.9 63.5801C738.54 60.9401 736.621 58.9 734.141 57.46C731.741 55.94 728.9 55.1797 725.62 55.1797ZM352.271 17.5C354.591 17.5 356.471 18.2603 357.911 19.7803C359.351 21.3003 360.071 23.18 360.071 25.4199C360.071 27.6599 359.351 29.5396 357.911 31.0596C356.471 32.5796 354.591 33.3398 352.271 33.3398C350.031 33.3398 348.152 32.5796 346.632 31.0596C345.192 29.5396 344.472 27.6599 344.472 25.4199C344.472 23.18 345.192 21.3003 346.632 19.7803C348.152 18.2603 350.032 17.5 352.271 17.5ZM677.936 17.5C680.255 17.5 682.135 18.2603 683.575 19.7803C685.015 21.3003 685.735 23.18 685.735 25.4199C685.735 27.6599 685.015 29.5396 683.575 31.0596C682.135 32.5796 680.255 33.3398 677.936 33.3398C675.696 33.3398 673.816 32.5796 672.296 31.0596C670.856 29.5396 670.136 27.6599 670.136 25.4199C670.136 23.18 670.856 21.3003 672.296 19.7803C673.816 18.2603 675.696 17.5 677.936 17.5Z" fill="#28282A"/>
<path d="M195.58 67.8999V55.8999H209.08L195.58 67.8999Z" fill="#EAECEB"/>
<path d="M308.58 67.8999V55.8999H322.08L308.58 67.8999Z" fill="#EAECEB"/>
</svg>
