<svg version="1.1" id="Layer_1" xmlns:x="ns_extend;" xmlns:i="ns_ai;" xmlns:graph="ns_graphs;" xmlns="http://www.w3.org/2000/svg" xmlns:xlink="http://www.w3.org/1999/xlink" x="0px" y="0px" viewBox="0 0 339.7 76" style="enable-background:new 0 0 339.7 76;" xml:space="preserve">
 <style type="text/css">
  .st0{fill:#FFFFFF;}
 </style>
 <metadata>
  <sfw xmlns="ns_sfw;">
   <slices>
   </slices>
   <sliceSourceBounds bottomLeftOrigin="true" height="76" width="339.7" x="690.1" y="13.6">
   </sliceSourceBounds>
  </sfw>
 </metadata>
 <g>
  <path class="st0" d="M323.9,74.7V57.2c0-6,1.1-9.9,4.7-13.1c4.6-4.2,11-4.1,11-4.1V27c-13.7,0-16.4,7.6-16.4,7.6l-3.9-6.4h-8.2
		v46.6H323.9z M67.9,76L67.9,76c12.2,0,15.4-7.6,15.4-7.6l3.9,6.4h8.2V28.2H82.7v23.1c0,6-1.9,10-4.8,11.8c-1.4,0.9-3.8,1.4-5.9,1.4
		c-7.4,0-9.2-4.2-9.2-11.1V28.2H49.9v29C49.9,70.2,56.4,76,67.9,76 M232.8,27C232.9,27,232.9,27,232.8,27c-12.2,0-15.4,7.6-15.4,7.6
		l-3.9-6.4h-8.2v46.6h12.8v-23c0-6,1.9-10,4.8-11.8c1.4-0.9,3.8-1.4,5.9-1.4c7.4,0,9.2,4.2,9.2,11.1v25.1h12.8v-29
		C250.8,32.8,244.3,27,232.8,27 M162.1,27c-11.8,0-15.2,7-15.3,7l-0.2,0.6l-0.3-0.5c-3.2-4.8-7.7-7.1-15.3-7.1
		c-11.8,0-15.2,7-15.3,7l-0.2,0.6l-3.9-6.4h-8.2v6.4v9.6v30.5h12.8v-23c0-9,3.1-13.2,9.7-13.2c5.9,0,8.6,3.5,8.6,10.9v25.3h12.8
		V51.4c0-8.8,3.1-12.9,9.5-12.9c3.8,0,8.8,1.1,8.8,11.1v25.1h12.8v-29C178.3,32.8,173.3,27,162.1,27 M13.3,61.4v-52H0v65.3h45.5
		V61.5L13.3,61.4L13.3,61.4z M182,9.5l9.5,9.5l9.5-9.5L191.4,0L182,9.5z M184.8,28.1H198v46.6h-13.3V28.1z M280.6,27
		c-7.5,0-14,2.5-18.6,7.2c-4.3,4.4-6.7,10.6-6.7,17.3s2.3,12.8,6.7,17.3c4.6,4.7,11.1,7.3,18.6,7.3c14.9,0,25.4-10.1,25.4-24.6
		S295.6,27,280.6,27 M280.6,65.1c-7.3,0-12.5-5.7-12.5-13.6c0-7.8,5.4-13.6,12.5-13.6c7.3,0,12.7,5.9,12.7,13.6
		C293.3,59.3,287.9,65.1,280.6,65.1">
  </path>
 </g>
</svg>