<svg xml:space="preserve" style="enable-background:new 0 0 285.8 33.1;" viewBox="0 0 285.8 33.1" y="0px" x="0px" xmlns:xlink="http://www.w3.org/1999/xlink" xmlns="http://www.w3.org/2000/svg" id="uuid-7bb708a0-3029-47cb-bbc2-02bdf9ec3bd7" version="1.1">
<style type="text/css">
	.st0{fill:#231F20;}
</style>
<g id="uuid-24a743a6-20e1-458f-9d09-47c145c9f013">
	<path d="M21.5,11.4C8.6,12.3,1.7,24.5,0,33.1c4.2-3.7,9.9-12.5,22.4-13.4C33.1,19,39.3,14.4,39.7,0
		C35.7,6.8,35,10.4,21.5,11.4" class="st0"></path>
	<path d="M23.5,23c-9.7,0.8-14.6,3.9-16.8,7.8c3.1-1.2,8.2-2.5,19.9-2.3c11.7,0.2,13.1-7.7,11.1-14.1
		C37.1,18.6,31.3,22.3,23.5,23" class="st0"></path>
	<path d="M19.2,9.3c7.7-0.5,12.9-1.6,14.1-5.7C28.7,7,24.4,5.5,13.8,5.1C3.1,4.7,1.7,14.9,3,19.5
		C5.7,15.6,9.7,9.9,19.2,9.3" class="st0"></path>
	<path d="M80.8,5.5L80.8,5.5c-2-1.9-4.8-2.6-10.8-2.6H50.4v23.7h4.9v-8.1h14.6c5.9,0,8.9-0.7,10.8-2.6
		c1.3-1.3,1.9-3,1.9-5.2S82.1,6.8,80.8,5.5 M77,13L77,13c-0.4,0.4-1.2,0.7-2.4,0.9c-1.2,0.2-2.7,0.3-4.7,0.3H55.3v-7H70
		c4,0,6.3,0.4,7,1.2c0.6,0.6,0.8,1.3,0.8,2.3S77.6,12.4,77,13" class="st0"></path>
	<path d="M113.6,26.6h8.7l-14.7-8.2l0.5,0c2.2-0.1,4.3-0.4,6.1-0.8c2-0.5,3.4-1.1,4.2-1.8c1.4-1.3,2-3.1,2-5.2
		s-0.7-3.9-2.1-5.3c-1.9-1.8-4.5-2.4-10.5-2.4H87.6v23.7h4.9v-8.1H99L113.6,26.6L113.6,26.6z M92.5,7.2h15.2c2.1,0,3.6,0.1,4.7,0.3
		c1.1,0.2,1.8,0.5,2.2,0.9c0.3,0.3,0.7,0.9,0.7,2.3c0,1.5-0.5,2-0.7,2.2c-0.6,0.6-1.9,1.4-7,1.4H92.5V7.2z" class="st0"></path>
	<path d="M152.6,3.4c-2.6-0.7-5.7-1-9.2-1s-6.7,0.3-9.3,1c-2.7,0.7-4.7,1.7-6.1,3.1c-2.1,2.1-3.1,4.9-3.1,8.3
		s1,6.3,3.1,8.4c1.3,1.3,3.4,2.3,6.1,3c2.6,0.7,5.8,1,9.3,1s6.6-0.4,9.2-1c2.7-0.7,4.7-1.7,6.1-3.1c2.1-2.1,3.1-4.9,3.1-8.3
		s-1-6.3-3.1-8.4C157.3,5.1,155.3,4.1,152.6,3.4 M154.9,19.9c-0.3,0.3-1.2,1.1-3.5,1.7c-2.2,0.6-4.9,1-8.1,1
		c-2.1,0-9.2-0.2-11.7-2.6c-1.3-1.3-1.8-2.8-1.8-5.1s0.5-3.9,1.8-5.1c0.7-0.7,2.1-1.3,3.8-1.8c2.2-0.6,4.8-0.9,7.9-0.9
		s5.7,0.3,7.9,0.9c1.7,0.5,3,1.1,3.8,1.8c1.2,1.2,1.8,2.8,1.8,5.1S156.2,18.6,154.9,19.9" class="st0"></path>
	<polygon points="196.1,22.3 172.3,22.3 172.3,2.9 167,2.9 167,26.6 196.1,26.6" class="st0"></polygon>
	<rect height="23.7" width="5.2" class="st0" y="2.9" x="200.8"></rect>
	<polygon points="246.7,2.9 241.5,2.9 241.5,22 220.2,2.9 212.5,2.9 212.5,26.6 217.7,26.6 217.7,7.2 239.4,26.6 
		246.7,26.6" class="st0"></polygon>
	<polygon points="285.5,22.4 258.4,22.4 258.4,16.7 285.1,16.7 285.1,12.5 258.4,12.5 258.4,7.2 285.5,7.2 285.5,2.9 
		253.2,2.9 253.2,26.6 285.5,26.6" class="st0"></polygon>
</g>
</svg>
